<?xml version="1.0" standalone="no"?><!DOCTYPE svg PUBLIC "-//W3C//DTD SVG 1.1//EN" "http://www.w3.org/Graphics/SVG/1.1/DTD/svg11.dtd"><svg t="1507859453842" class="icon" style="" viewBox="0 0 1024 1024" version="1.1" xmlns="http://www.w3.org/2000/svg" p-id="2516" xmlns:xlink="http://www.w3.org/1999/xlink" width="200" height="200"><defs><style type="text/css"></style></defs><path d="M511.909909 820.474933C511.909909 820.474933 231.709862 511.90115 231.709862 343.609449 231.709862 175.517949 344.337685 64 511.909909 64 679.923829 64 791.163998 175.5192 791.163998 343.609449 791.163998 511.90115 511.909909 820.474933 511.909909 820.474933L511.909909 820.474933ZM277.981306 343.609453C277.981306 454.223987 437.639699 661.404981 512.001265 759.254086 586.337805 661.381207 746.680892 454.223987 746.680892 343.609453 746.680892 210.065813 653.144209 109.129534 512.001254 109.129534 373.597318 109.129534 277.981306 201.790815 277.981306 343.609453ZM64 791.678268C64 738.64205 171.506337 646.618067 311.309184 646.618067L343.143977 679.572224C231.709862 679.572224 110.344121 744.700691 110.344121 791.67827 110.344121 841.453685 265.785615 916.905372 512.023763 916.905372 770.125178 916.905372 913.137126 849.456791 913.137126 791.67827 913.137126 727.258025 791.165248 680.165323 679.923829 680.165323L708.293295 646.618067C847.498035 646.618067 960 711.493303 960 791.678268 960.001252 916.433374 718.695599 960.66067 512.023774 960.66067 294.842556 960.66067 64 901.445694 64 791.678268ZM511.998812 448C453.187511 448 405.333333 400.147014 405.333333 341.337506 405.333333 282.51846 453.1887 234.666667 511.998812 234.666667 570.814865 234.666667 618.666667 282.51846 618.666667 341.337506 618.666667 400.148207 570.812489 448 511.998812 448L511.998812 448ZM512.42317 277.333333C476.812681 277.333333 448 307.02915 448 341.5944 448 376.660326 477.067723 405.333333 512.42317 405.333333 548.20749 405.333333 576 376.916386 576 341.5944 576 308.053391 547.697404 277.333333 512.42317 277.333333L512.42317 277.333333Z" p-id="2517" fill="#FFBA08"></path></svg>