<?xml version="1.0" standalone="no"?><!DOCTYPE svg PUBLIC "-//W3C//DTD SVG 1.1//EN" "http://www.w3.org/Graphics/SVG/1.1/DTD/svg11.dtd"><svg t="1507859504447" class="icon" style="" viewBox="0 0 1024 1024" version="1.1" xmlns="http://www.w3.org/2000/svg" p-id="2668" xmlns:xlink="http://www.w3.org/1999/xlink" width="200" height="200"><defs><style type="text/css"></style></defs><path d="M589.285712 649.656173" p-id="2669" fill="#FFBA08"></path><path d="M226.167554 435.357436" p-id="2670" fill="#FFBA08"></path><path d="M102.415043 862.886579" p-id="2671" fill="#FFBA08"></path><path d="M943.933965 949.264878" p-id="2672" fill="#FFBA08"></path><path d="M698.3415 814.450427l-23.096021 39.954991c56.848753 12.183484 93.352131 31.085996 93.352131 52.334949 0 36.7019-109.547998 66.532299-244.661256 66.532299-135.113257 0-244.635673-29.829376-244.635673-66.532299 0-29.108968 68.512397-53.819766 164.010401-62.881143l20.87647 33.108049c8.276501 24.785499 31.94455 42.836621 60.171428 42.836621 30.827099 0 56.486502-21.394263 62.295811-49.723471l134.363174-240.500493c59.773362-60.796668 97.333816-144.584979 97.333816-230.068909 0-163.987888-137.331785-296.858058-306.758546-296.858058-169.425737 0-306.782082 132.87017-306.782082 296.858058 0 92.7668 44.039006 183.736675 112.919792 245.232261l98.063433 155.493423c-108.445898 16.886599-185.095625 58.307987-185.095625 106.752326 0 63.492056 131.468241 114.965381 293.66125 114.965381 162.196079 0 293.665343-51.473325 293.665343-114.965381C818.0233 869.022323 770.919493 835.362712 698.3415 814.450427L698.3415 814.450427zM511.591189 306.937624c56.408731 0 102.145401 45.737694 102.145401 102.144378 0 56.412824-45.736671 102.145401-102.145401 102.145401-56.411801 0-102.149495-45.732577-102.149495-102.145401C409.442718 352.674295 455.179388 306.937624 511.591189 306.937624L511.591189 306.937624zM511.591189 306.937624" p-id="2673" fill="#FFBA08"></path><path d="M705.745121 149.578714l0 0 0 2.046612 0 0 0-2.046612Z" p-id="2674" fill="#FFBA08"></path></svg>