<?xml version="1.0" standalone="no"?><!DOCTYPE svg PUBLIC "-//W3C//DTD SVG 1.1//EN" "http://www.w3.org/Graphics/SVG/1.1/DTD/svg11.dtd"><svg t="1507859578359" class="icon" style="" viewBox="0 0 1024 1024" version="1.1" xmlns="http://www.w3.org/2000/svg" p-id="3371" xmlns:xlink="http://www.w3.org/1999/xlink" width="200" height="200"><defs><style type="text/css"></style></defs><path d="M1007.133225 504.308982 511.72545 52.850914 17.4231 503.218006c-9.88742 8.785606-9.88742 29.658647-1.101813 39.538841 8.785606 9.88742 29.662259 9.88742 39.549679 1.101813L511.72545 129.743033l455.858096 416.308417c4.396416 4.400028 12.091046 6.592817 21.964016 6.592817 7.694631 0 13.182022-2.192789 17.58205-7.683793C1017.017032 535.073054 1015.915219 513.105426 1007.133225 504.308982L1007.133225 504.308982zM825.890355 543.855048l0 367.98397-181.253708 0 0-266.931433-265.818782 0 0 266.931433L197.564157 911.839018 197.564157 543.855048c0-30.753235-59.310068-30.753235-59.310068 0l0 427.29765 298.775644 0 0-268.022409 149.395047 0 0 268.022409 298.779256 0L885.204036 543.855048C885.204036 513.105426 825.890355 513.105426 825.890355 543.855048L825.890355 543.855048zM687.477316 175.871079l143.90043 0 0 127.420193c0 31.855048 48.331673 31.855048 48.331673 0L879.709419 128.641219l-191.126677 0c-13.182022 0-24.171255 9.88742-24.171255 24.160418C663.320511 165.983659 674.298906 175.871079 687.477316 175.871079z" p-id="3372" fill="#FFBA08"></path></svg>