<?xml version="1.0" standalone="no"?><!DOCTYPE svg PUBLIC "-//W3C//DTD SVG 1.1//EN" "http://www.w3.org/Graphics/SVG/1.1/DTD/svg11.dtd"><svg t="1507821522627" class="icon" style="" viewBox="0 0 1024 1024" version="1.1" xmlns="http://www.w3.org/2000/svg" p-id="991" xmlns:xlink="http://www.w3.org/1999/xlink" width="200" height="200"><defs><style type="text/css"></style></defs><path d="M512 184.78761c-138.962628 0-251.698864 91.52553-252.567687 230.118028 0 5.536087 0.001023 12.870122 0.001023 22.460548 0 159.708422 252.566664 437.440887 252.566664 437.440887s252.567687-282.848996 252.567687-431.228395c0-11.768021 0.004093-4.77577 0.004093-4.77577l0.017397-19.581987C764.589177 279.723819 651.500909 184.78761 512 184.78761zM732.340376 440.804495c0 0-0.00307-6.099928-0.00307 4.166903 0 129.444141-220.336282 376.197034-220.336282 376.197034S291.663718 578.8792 291.663718 439.551968c0-8.365528 0-14.763239-0.001023-19.593244-0.00307 0.468674-0.017397 0.932232-0.017397 1.401929 0 0 0.014327-31.650861 0.017397-1.401929 0.757278-120.905674 99.108295-200.75221 220.337305-200.75221 121.698728 0 220.354702 82.821287 220.354702 204.514907L732.340376 440.804495z" p-id="992" fill="#FFFFFF"></path><path d="M259.411846 416.513252c0-0.539282 0.017397-1.070378 0.020467-1.607614C259.42822 380.232954 259.411846 416.513252 259.411846 416.513252z" p-id="993" fill="#FFFFFF"></path><path d="M512.010233 299.160497c-60.227168 0-109.051155 48.821939-109.051155 109.046578s48.823988 109.046578 109.051155 109.046578 109.051155-48.821939 109.051155-109.046578S572.237401 299.160497 512.010233 299.160497zM512.010233 486.554468c-43.272319 0-78.350681-35.07689-78.350681-78.347392 0-43.270503 35.078362-78.347392 78.350681-78.347392s78.350681 35.07689 78.350681 78.347392C590.360914 451.477578 555.282552 486.554468 512.010233 486.554468z" p-id="994" fill="#FFFFFF"></path></svg>